<?xml version="1.0" encoding="UTF-8" standalone="no"?>
<!-- Created with Inkscape (http://www.inkscape.org/) -->

<svg
   xmlns:dc="http://purl.org/dc/elements/1.1/"
   xmlns:cc="http://creativecommons.org/ns#"
   xmlns:rdf="http://www.w3.org/1999/02/22-rdf-syntax-ns#"
   xmlns:svg="http://www.w3.org/2000/svg"
   xmlns="http://www.w3.org/2000/svg"
   xmlns:xlink="http://www.w3.org/1999/xlink"
   xmlns:sodipodi="http://sodipodi.sourceforge.net/DTD/sodipodi-0.dtd"
   xmlns:inkscape="http://www.inkscape.org/namespaces/inkscape"
   width="210mm"
   height="297mm"
   viewBox="0 0 210 297"
   version="1.1"
   id="svg8"
   sodipodi:docname="favicon_srs.svg"
   inkscape:version="0.92.3 (2405546, 2018-03-11)"
   inkscape:export-filename="/home/julien/work/misc/flutter/autospell/assets/images/icon.png"
   inkscape:export-xdpi="432.00012"
   inkscape:export-ydpi="432.00012">
  <defs
     id="defs2">
    <linearGradient
       inkscape:collect="always"
       id="linearGradient1497">
      <stop
         style="stop-color:#000000;stop-opacity:0.92"
         offset="0"
         id="stop1493" />
      <stop
         style="stop-color:#000000;stop-opacity:0.459"
         offset="1"
         id="stop1495" />
    </linearGradient>
    <linearGradient
       inkscape:collect="always"
       xlink:href="#linearGradient1497"
       id="linearGradient1501"
       gradientUnits="userSpaceOnUse"
       x1="36.106911"
       y1="138.87581"
       x2="-16.809755"
       y2="85.959145" />
  </defs>
  <sodipodi:namedview
     id="base"
     pagecolor="#ffffff"
     bordercolor="#666666"
     borderopacity="1.0"
     inkscape:pageopacity="0.0"
     inkscape:pageshadow="2"
     inkscape:zoom="1"
     inkscape:cx="61.47851"
     inkscape:cy="678.58753"
     inkscape:document-units="px"
     inkscape:current-layer="layer1"
     showgrid="false"
     showborder="false"
     inkscape:window-width="2560"
     inkscape:window-height="1381"
     inkscape:window-x="0"
     inkscape:window-y="0"
     inkscape:window-maximized="1" />
  <metadata
     id="metadata5">
    <rdf:RDF>
      <cc:Work
         rdf:about="">
        <dc:format>image/svg+xml</dc:format>
        <dc:type
           rdf:resource="http://purl.org/dc/dcmitype/StillImage" />
        <dc:title></dc:title>
      </cc:Work>
    </rdf:RDF>
  </metadata>
  <g
     inkscape:label="Layer 1"
     inkscape:groupmode="layer"
     id="layer1">
    <path
       style="opacity:0.96600001;fill:url(#linearGradient1501);fill-opacity:1;fill-rule:nonzero;stroke-width:0.26458332"
       d="M -16.809755,85.959146 H 36.10691 v 52.916664 h -52.916665 z"
       id="rect815"
       inkscape:connector-curvature="0"
       inkscape:export-filename="/home/julien/work/misc/flutter/autospell/assets/images/icon_512.png"
       inkscape:export-xdpi="245.76007"
       inkscape:export-ydpi="245.76007" />
    <path
       style="clip-rule:evenodd;fill:#ffffff;fill-opacity:1;fill-rule:evenodd;stroke-width:0.14675209;stroke-linejoin:round;stroke-miterlimit:2"
       d="m 6.9781371,88.514056 c -0.062071,0.01323 -0.1239371,0.02645 -0.1860174,0.03956 -0.052683,0.03532 -0.1131616,0.06113 -0.1582183,0.105829 -0.1344249,0.133107 -0.1418123,0.188602 -0.150764,0.3901 -0.087617,1.689407 -0.7055619,3.603279 -2.4712833,3.928482 -0.3548468,0.06525 -0.7196214,0.05753 -1.0782839,0.0077 l -0.2135354,0.01631 -0.1871669,0.103773 -0.1272635,0.172254 -0.044142,0.209524 0.047007,0.208947 c 0.00783,0.0167 0.015309,0.03352 0.022642,0.05048 0.8991492,2.058499 -0.7157517,2.874082 -4.2540913,3.628673 l -0.1229623,0.149341 c -0.049747,0.159809 -0.089855,0.206956 -0.040988,0.377476 0.058115,0.203693 0.1803309,0.67355 0.2946506,0.8639 0.084677,0.140876 0.1627046,0.285582 0.2341727,0.433664 0.4336527,0.899731 0.62028267,1.967101 0.3012432,2.939911 -0.2086812,0.63574 -0.6121511,1.19309 -1.0986345,1.65785 0,0 -0.09256,0.092 -0.1301278,0.17627 -0.027514,0.0618 -0.036663,0.10646 -0.039841,0.14876 -0.1081643,0.38845 0.1161452,1.52914 0.1745548,1.85418 0.285873,1.58948 0.9880038,3.20992 2.10669523,4.86088 1.25076767,2.09269 3.23963257,3.56255 5.43871277,4.50631 1.4176249,0.60301 2.8095006,1.31241 3.946829,2.35406 2.4400482,2.2346 3.2441352,5.67181 2.5790552,8.78104 l -0.284907,1.09377 c -0.331213,1.0621 -0.794982,2.08198 -1.376661,3.02963 -1.3217962,2.15285 -3.2474338,4.05498 -5.627313,4.60148 -1.4572477,0.33476 -3.1167827,0.0407 -4.52839051,-0.63115 -2.44298229,-1.16271 -3.95515489,-3.75687 -4.13800809,-6.41983 -0.119162,-1.73417 0.262338,-3.6535 1.5065021,-4.96062 0.7559202,-0.79436 1.79117345,-1.20295 2.84676128,-1.20927 1.35510772,-0.003 2.80051652,0.48568 3.77084152,1.45806 0.743592,0.74522 1.1554973,1.79918 1.1995252,2.85594 l -0.026946,-0.005 c -0.8925463,-0.1918 -1.7670571,-0.45923 -2.6653277,-0.61509 -2.05408792,-0.35632 -3.2773729,1.80414 -2.82669691,3.52319 0.42103149,1.60577 2.33655451,2.69661 3.84135031,2.14482 1.5281295,-0.5603 2.3576939,-2.2358 2.6120155,-3.84478 0,0 0.082685,-0.54933 0.076532,-1.00751 -1.464e-4,-0.006 0,-0.006 0,-0.006 -0.00707,-0.86378 -0.1934948,-1.72658 -0.5838557,-2.49365 -1.4833694,-2.91567 -5.86829035,-3.95775 -8.3906653,-2.01812 -3.0891321,2.37548 -3.0844609,7.47862 -0.8183149,10.79316 1.3037457,1.90704 3.43080562,3.13978 5.703554,3.47132 1.7975674,0.26238 3.4712697,-0.12124 4.9225016,-1.00148 2.4713064,-1.49892 4.2931546,-4.04179 5.2802096,-6.81393 0.196648,-0.55237 0.366379,-1.0317 0.589589,-2.24915 l 2.94e-4,-0.001 c 0.289834,-1.74049 0.212724,-3.56891 -0.357995,-5.24409 -0.848667,-2.49141 -2.7973072,-4.47313 -5.1030768,-5.70585 -1.2620679,-0.67476 -2.677769,-1.14372 -3.9018286,-1.94762 -1.079802,-0.94816 -1.9530656,-1.91081 -2.61946722,-2.88775 -0.3580757,-0.52493 -0.6712809,-1.04594 -0.94013029,-1.56353 -0.10375399,-0.24142 -0.20013322,-0.48593 -0.28891823,-0.73262 -0.46571553,-1.29352 -0.75770216,-2.61896 -0.87592656,-3.94913 0.1217306,-0.14086 0.23763681,-0.28962 0.34595648,-0.44139 0.57159937,-0.80098 0.88697234,-1.77818 0.84984369,-2.77654 -0.0366902,-0.982956 -0.33476446,-2.083143 -0.84898365,-2.911261 2.37826418,-0.156148 5.15212358,-2.222945 4.44125748,-3.964601 0,0 1.3996869,-0.100301 2.2944333,-0.937273 0.7205538,-0.674026 1.1442711,-1.626929 1.380101,-2.597107 0,0 0.4382571,0.59992 0.9515957,1.003185 0.8480806,0.66596 2.0065617,0.889355 3.0442457,0.59188 0.434387,-0.12445 0.845607,-0.320978 1.228191,-0.560915 0,0 0.08075,0.433433 0.16997,0.773303 0.504532,1.922606 2.014991,3.381904 3.310519,4.958911 0.396231,0.482225 0.683441,1.052901 0.757551,1.67102 0.09671,0.805663 0.01718,1.738248 0.769874,2.264068 0.539902,0.37715 1.230965,0.49576 1.907492,0.60421 1.103576,0.17683 2.22352,0.23656 3.341477,0.26885 0,0 0.126789,-0.12587 -0.01834,0.13643 -0.38992,0.71482 -0.599223,1.51716 -0.750671,2.32223 l -0.007,0.0358 c -0.03743,-0.0276 -0.07493,-0.0548 -0.112648,-0.0823 -1.209237,-0.87347 -2.589429,-1.54901 -4.060618,-1.75931 -1.267059,-0.18124 -2.55961,-0.0466 -3.817275,0.20465 -0.02905,0.005 -0.05808,0.0116 -0.08713,0.0164 -0.810072,0.14367 -1.68298,0.0677 -2.267493,-0.52452 -0.743724,-0.75397 -0.926409,-1.93039 -0.881357,-2.8906 l -0.03297,-0.204646 -0.11293,-0.173987 -0.173409,-0.113534 -0.204649,-0.03417 -0.200925,0.05138 -0.1630902,0.12779 -0.09745,0.182874 c -0.518917,1.783183 0.5804052,3.796083 1.8160572,4.266423 0.938187,0.35718 1.972338,0.39982 2.959979,0.21095 1.766161,-0.33136 3.634129,-0.25786 5.248108,0.53829 0.808604,0.39901 1.538093,0.94083 2.250868,1.4979 l 0.192038,0.0928 0.21325,0.005 0.195764,-0.0838 0.143886,-0.15735 0.06564,-0.20293 c 0.0035,-0.0341 0.0075,-0.0677 0.01143,-0.10175 0.136038,-1.11826 0.33145,-2.32567 1.0115,-3.12135 0.09319,-0.10892 0.202967,-0.20818 0.335924,-0.26571 l 0.16137,-0.11122 c 0.20971,-0.32358 0.193826,-0.75627 -0.365446,-0.85358 -0.116372,-0.0202 -0.287589,6e-4 -0.448283,-5.9e-4 -1.564964,-0.0144 -3.153943,-0.0381 -4.667691,-0.40414 -0.310823,-0.0752 -0.676733,-0.12598 -0.871913,-0.35513 -0.299961,-0.361593 -0.208303,-1.149054 -0.327613,-1.791973 -0.299818,-1.615531 -1.750948,-2.71649 -2.737561,-3.96683 -0.90458,-1.146566 -1.470707,-2.533352 -1.524272,-4.006149 l -0.043,-0.1866 c -0.154234,-0.219974 -0.414464,-0.355149 -0.646624,-0.262254 -0.239499,0.09581 -0.402609,0.318919 -0.62083,0.469198 -0.803028,0.553261 -1.828018,0.897998 -2.7851382,0.439392 C 8.4203159,90.59283 7.858155,89.667866 7.4412318,88.800562 L 7.3277233,88.647792 C 7.1667361,88.548642 7.1644153,88.547615 6.9780396,88.515366 Z M 2.0026122,126.63464 c 0.0086,0 0.017557,1.3e-4 0.026367,2.9e-4 0.6380785,0.0116 1.2731812,0.25523 1.9094976,0.40873 0.5462109,0.13163 1.1943674,0.27687 1.1943674,0.27687 -0.054301,0.35397 -0.1415901,0.70224 -0.2639822,1.03816 -0.4318908,1.18576 -1.4295886,2.32116 -2.4916323,2.10469 -1.0705574,-0.21837 -1.88051412,-1.19376 -1.79026102,-2.21016 0.060902,-0.68754 0.60938542,-1.60932 1.41564352,-1.61858 z"
       id="path2662"
       inkscape:connector-curvature="0"
       inkscape:export-xdpi="245"
       inkscape:export-ydpi="245" />
  </g>
</svg>
