<?xml version="1.0" encoding="UTF-8" standalone="no"?>
<svg
   xmlns:dc="http://purl.org/dc/elements/1.1/"
   xmlns:cc="http://creativecommons.org/ns#"
   xmlns:rdf="http://www.w3.org/1999/02/22-rdf-syntax-ns#"
   xmlns:svg="http://www.w3.org/2000/svg"
   xmlns="http://www.w3.org/2000/svg"
   xmlns:sodipodi="http://sodipodi.sourceforge.net/DTD/sodipodi-0.dtd"
   xmlns:inkscape="http://www.inkscape.org/namespaces/inkscape"
   width="100%"
   height="100%"
   viewBox="0 0 720 414"
   version="1.1"
   xml:space="preserve"
   style="fill-rule:evenodd;clip-rule:evenodd;stroke-linejoin:round;stroke-miterlimit:2;"
   id="svg46"
   sodipodi:docname="seahorse-white.svg"
   inkscape:version="0.92.3 (2405546, 2018-03-11)"><metadata
     id="metadata52"><rdf:RDF><cc:Work
         rdf:about=""><dc:format>image/svg+xml</dc:format><dc:type
           rdf:resource="http://purl.org/dc/dcmitype/StillImage" /><dc:title></dc:title></cc:Work></rdf:RDF></metadata><defs
     id="defs50" /><sodipodi:namedview
     pagecolor="#ffffff"
     bordercolor="#666666"
     borderopacity="1"
     objecttolerance="10"
     gridtolerance="10"
     guidetolerance="10"
     inkscape:pageopacity="0"
     inkscape:pageshadow="2"
     inkscape:window-width="1366"
     inkscape:window-height="703"
     id="namedview48"
     showgrid="false"
     inkscape:zoom="0.51805556"
     inkscape:cx="360"
     inkscape:cy="207"
     inkscape:window-x="0"
     inkscape:window-y="0"
     inkscape:window-maximized="1"
     inkscape:current-layer="svg46" /><g
     id="g18"
     style="fill:#ffffff"><path
       d="M151.656,253.579c-8.415,-1.824 -13.423,2.869 -15.364,11.428c-3.606,15.897 16.962,20.82 13.855,34.515c-1.387,6.114 -4.749,9.98 -11.026,8.556c-6.282,-1.42 -7.647,-6.359 -6.26,-12.474l0.721,-3.18l-3.578,-0.812l-0.665,2.935c-1.869,8.235 0.343,15.07 9.069,17.049c8.727,1.98 13.671,-3.231 15.539,-11.466c3.57,-15.736 -16.999,-20.66 -13.854,-34.521c1.369,-6.033 4.67,-10 10.869,-8.593c6.199,1.406 7.447,6.49 6.078,12.524l-0.333,1.467l3.577,0.812l0.278,-1.223c1.868,-8.235 -0.262,-15.051 -8.907,-17.012l0.001,-0.005Z"
       style="fill:#ffffff;fill-rule:nonzero"
       id="path2" /><path
       d="M167.557,285.477l5.217,-22.999l18.75,4.254l0.774,-3.414l-22.489,-5.102l-12.943,57.053l22.489,5.102l0.775,-3.413l-18.75,-4.254l5.403,-23.813l15.57,3.532l0.774,-3.414l-15.57,-3.532Z"
       style="fill:#ffffff;fill-rule:nonzero"
       id="path4" /><path
       d="M198.418,264.701l-12.945,57.064l3.75,0.85l5.788,-25.515l5.951,1.35c6.522,1.479 10.198,4.542 8.478,12.123l-2.034,8.967c-0.703,3.098 -0.92,5.191 -0.33,7.125l3.912,0.888c-0.797,-2.152 -0.368,-4.798 0.168,-7.162l2.016,-8.886c1.401,-6.201 -0.014,-10.892 -5.587,-13.524c5.92,-0.024 9.39,-3.266 10.908,-9.953l1.128,-4.975c1.832,-8.074 -0.575,-13.667 -9.302,-15.647l-11.901,-2.705Zm-2.634,28.969l5.603,-24.7l8.076,1.831c6.199,1.407 7.732,5.612 6.345,11.726l-1.22,5.38c-1.739,7.663 -6.079,8.649 -12.768,7.132l-6.036,-1.369Z"
       style="fill:#ffffff;fill-rule:nonzero"
       id="path6" /><path
       d="M228.91,271.624l-0.393,59.9l5.541,1.257l25.33,-54.243l-3.504,-0.795l-23.537,50.118l0.393,-55.368l-3.83,-0.869Z"
       style="fill:#ffffff;fill-rule:nonzero"
       id="path8" /><path
       d="M265.105,279.835l-12.943,57.053l3.739,0.848l12.943,-57.053l-3.739,-0.848Z"
       style="fill:#ffffff;fill-rule:nonzero"
       id="path10" /><path
       d="M287.547,284.412c-8.727,-1.98 -13.708,3.394 -15.576,11.629l-6.622,29.19c-1.868,8.235 0.306,15.232 9.033,17.212c8.727,1.98 13.707,-3.394 15.576,-11.629l1.479,-6.523l-3.576,-0.812l-1.536,6.768c-1.387,6.115 -4.788,10.144 -11.069,8.72c-6.28,-1.425 -7.61,-6.528 -6.223,-12.643l6.733,-29.679c1.387,-6.115 4.807,-10.226 11.088,-8.801c6.281,1.425 7.592,6.609 6.204,12.724l-1.128,4.974l3.577,0.811l1.072,-4.729c1.869,-8.235 -0.305,-15.232 -9.032,-17.212Z"
       style="fill:#ffffff;fill-rule:nonzero"
       id="path12" /><path
       d="M303.612,316.342l5.217,-22.998l18.75,4.253l0.774,-3.414l-22.489,-5.101l-12.943,57.053l22.489,5.102l0.775,-3.414l-18.75,-4.254l5.403,-23.813l15.57,3.532l0.774,-3.414l-15.57,-3.532Z"
       style="fill:#ffffff;fill-rule:nonzero"
       id="path14" /><path
       d="M346.486,297.777c-8.415,-1.823 -13.422,2.87 -15.364,11.429c-3.606,15.896 16.963,20.82 13.856,34.515c-1.387,6.114 -4.75,9.98 -11.027,8.556c-6.282,-1.42 -7.647,-6.359 -6.26,-12.475l0.721,-3.179l-3.577,-0.812l-0.666,2.935c-1.868,8.235 0.343,15.07 9.069,17.049c8.728,1.98 13.671,-3.231 15.539,-11.466c3.57,-15.736 -16.998,-20.66 -13.854,-34.521c1.369,-6.033 4.67,-10 10.869,-8.593c6.199,1.406 7.447,6.49 6.078,12.524l-0.333,1.467l3.577,0.812l0.278,-1.223c1.868,-8.235 -0.261,-15.051 -8.907,-17.012l0.001,-0.006Z"
       style="fill:#ffffff;fill-rule:nonzero"
       id="path16" /></g><g
     id="g34"
     style="fill:#ffffff"><path
       d="M156.779,192.843c6.587,-0.241 12.23,-1.784 16.929,-4.627c4.698,-2.842 8.23,-5.918 10.595,-9.226c1.643,-2.198 2.565,-4.18 2.767,-5.946c0.527,-1.133 0.443,-2.136 -0.253,-3.011c-0.476,-1.048 -2.024,-1.424 -4.642,-1.126c-3.667,0.774 -7.698,2.997 -12.093,6.67c-4.878,4.412 -9.312,10.168 -13.303,17.266Zm33.042,-9.943c-3.089,4.418 -7.764,8.357 -14.023,11.817c-6.26,3.46 -13.751,5.089 -22.475,4.888c-2.086,4.334 -3.615,8.583 -4.587,12.746c-0.972,4.163 -1.125,7.674 -0.458,10.533c0.017,1.593 0.547,3.045 1.59,4.356l1.371,1.052c1.503,0.768 3.416,0.986 5.74,0.655c2.324,-0.331 4.873,-1.332 7.649,-3.003c3.431,-2.192 7.186,-5.043 11.264,-8.554c4.079,-3.51 8.185,-7.265 12.32,-11.266c4.134,-4 8.062,-7.925 11.781,-11.774c3.72,-3.85 7.133,-7.187 10.239,-10.013c0.942,-1.284 1.92,-2.017 2.935,-2.2c1.014,-0.182 1.892,-0.032 2.632,0.45c1.48,0.964 1.584,2.666 0.312,5.105c-3.347,3.196 -6.952,6.909 -10.815,11.14c-3.863,4.23 -7.916,8.389 -12.16,12.477c-4.244,4.087 -8.52,8.022 -12.828,11.804c-4.309,3.782 -8.473,6.736 -12.493,8.861c-8.062,4.447 -14.803,5.168 -20.225,2.163l-2.742,-2.102l0.033,-0.295c-1.956,-2.012 -3.159,-4.535 -3.608,-7.569c-0.555,-3.84 -0.258,-8.18 0.891,-13.018c1.149,-4.839 2.799,-9.72 4.952,-14.642c2.152,-4.923 4.828,-9.637 8.026,-14.142c3.198,-4.505 6.678,-8.432 10.44,-11.779c2.45,-2.305 4.953,-4.206 7.51,-5.703c2.556,-1.497 5.253,-2.481 8.09,-2.952l0.294,0.033c5.433,-0.572 9.136,0.944 11.11,4.549c1.542,2.164 1.927,4.892 1.153,8.183c-0.729,2.899 -2.035,5.632 -3.918,8.2Z"
       style="fill:#ffffff;fill-rule:nonzero"
       id="path20" /><path
       d="M253.778,173.804c2.175,1.839 3.63,3.894 4.365,6.164c1.401,-1.827 2.694,-3.568 3.876,-5.222c1.183,-1.655 2.159,-3.233 2.927,-4.736c1.205,-1.85 2.744,-2.27 4.617,-1.261c2.024,1.424 2.433,3.061 1.228,4.911c-0.022,0.196 -0.083,0.289 -0.181,0.278c-0.098,-0.012 -0.158,0.081 -0.181,0.277l-0.1,0.883l-4.079,6.989c-2.674,4.267 -5.623,9.198 -8.846,14.794c-3.223,5.596 -6.328,11.453 -9.313,17.573c-2.985,6.12 -5.566,12.187 -7.744,18.2c-2.178,6.013 -3.448,11.484 -3.813,16.412c0.124,2.4 1.201,3.417 3.23,3.053c2.052,-0.561 5.046,-2.406 8.982,-5.535c3.279,-2.607 6.888,-5.922 10.827,-9.945c3.938,-4.023 8.068,-8.422 12.391,-13.196c4.322,-4.775 8.803,-9.63 13.442,-14.567c4.639,-4.937 9.507,-9.699 14.603,-14.286c1.575,-1.609 3.288,-1.811 5.138,-0.606c0.74,0.482 1.152,1.225 1.237,2.229c0.084,1.003 -0.202,1.766 -0.858,2.287c-4.855,4.217 -9.662,8.886 -14.422,14.008c-4.76,5.122 -9.361,10.163 -13.804,15.122c-4.443,4.96 -8.699,9.593 -12.769,13.899c-4.07,4.306 -7.855,7.85 -11.353,10.631c-2.164,1.542 -4.158,2.904 -5.983,4.088c-1.825,1.183 -3.556,1.979 -5.193,2.388l-0.328,0.261c-4.519,1.273 -7.897,0.39 -10.134,-2.648c-1.369,-1.946 -1.994,-4.303 -1.876,-7.073l0.033,-0.294c0.207,-3.555 0.824,-7.212 1.85,-10.971c1.025,-3.76 2.313,-7.638 3.863,-11.636c1.55,-3.997 3.253,-8.027 5.108,-12.089c1.856,-4.063 3.792,-7.966 5.811,-11.712l-2.002,1.859c-4.44,4.065 -9.048,7.863 -13.825,11.392c-4.777,3.53 -9.295,6.543 -13.556,9.038c-4.85,2.428 -9.31,4.056 -13.38,4.883c-4.07,0.827 -7.51,0.484 -10.319,-1.03l-2.448,-2.068c-1.564,-1.968 -2.517,-4.065 -2.859,-6.291c-0.859,-4.67 0.773,-10.249 4.893,-16.736c3.464,-5.966 8.269,-11.48 14.413,-16.543c4.9,-4.609 10.12,-8.536 15.659,-11.78c5.539,-3.243 10.742,-5.283 15.608,-6.119l0.295,0.034l4.188,-0.118c2.158,0.246 4.13,0.819 5.916,1.719c1.786,0.9 3.408,1.93 4.866,3.09Zm-1.446,12.657l0.202,-1.766c-0.387,-1.833 -1.461,-3.745 -3.222,-5.735c-2.175,-1.839 -4.55,-2.806 -7.123,-2.901c-1.177,-0.135 -1.974,-0.126 -2.389,0.025c-4.255,0.707 -8.884,2.514 -13.888,5.422c-5.004,2.907 -9.726,6.393 -14.166,10.458c-2.669,2.479 -5.141,4.98 -7.417,7.503c-2.276,2.523 -4.16,5.091 -5.651,7.704c-3.178,5.203 -4.532,9.223 -4.061,12.06c0.151,0.415 0.384,0.988 0.698,1.72c0.314,0.731 0.743,1.327 1.287,1.787c1.677,0.986 4.005,1.053 6.985,0.201c2.979,-0.852 6.37,-2.254 10.171,-4.206c4.239,-2.299 8.539,-5.138 12.9,-8.516c4.362,-3.378 8.752,-7.002 13.169,-10.871c2.428,-2.108 4.659,-4.239 6.694,-6.392c2.035,-2.153 3.972,-4.317 5.811,-6.493Z"
       style="fill:#ffffff;fill-rule:nonzero"
       id="path22" /><path
       d="M302.12,199.602c-0.196,-0.022 -0.387,-0.094 -0.572,-0.214c-0.185,-0.121 -0.376,-0.192 -0.572,-0.214c-1.654,-1.183 -1.976,-2.711 -0.967,-4.584c-1.077,-4.496 -1.369,-8.903 -0.876,-13.22c0.493,-4.317 1.202,-7.914 2.127,-10.79c1.76,-4.968 4.008,-8.985 6.744,-12.052c2.736,-3.067 5.043,-4.991 6.921,-5.77c2.293,-0.931 4.327,-0.897 6.101,0.1c1.775,0.998 3.133,2.595 4.075,4.79c0.942,2.194 1.338,4.824 1.187,7.888c-0.151,3.064 -1.006,6.197 -2.565,9.398c-2.04,3.942 -4.675,7.865 -7.904,11.771c-3.229,3.905 -5.948,6.825 -8.157,8.759c1.301,2.534 2.907,5.004 4.819,7.409c1.912,2.405 3.53,4.777 4.853,7.114c1.974,3.605 3.421,6.603 4.341,8.995c0.919,2.391 1.173,4.954 0.761,7.69c-0.412,2.737 -1.419,5.902 -3.022,9.496c-1.604,3.594 -1.777,3.891 -7.052,17.006c-1.43,3.812 -2.503,7.119 -3.221,9.92c-0.717,2.8 -1.275,5.072 -1.673,6.816c-0.201,1.766 0.176,3.25 1.132,4.453c0.956,1.203 2.328,1.807 4.117,1.812c1.788,0.005 3.764,-0.763 5.928,-2.305c2.164,-1.542 5.433,-3.848 9.321,-7.988c4.722,-5.029 19.432,-26.27 27.295,-36.803c7.862,-10.532 15.74,-19.025 23.634,-25.479c0.874,-0.696 1.628,-1.206 2.262,-1.531c0.634,-0.325 1.418,-0.236 2.355,0.269c0.936,0.504 1.599,1.226 1.989,2.165c0.39,0.939 0.245,1.768 -0.433,2.485c-8.112,6.628 -15.897,14.735 -23.353,24.32c-7.456,9.585 -20.045,27.047 -25.045,34.077c-3.193,4.489 -9.131,10.246 -12.739,13.115c-3.607,2.868 -7.075,4.509 -10.402,4.924c-3.328,0.415 -6.226,-0.313 -8.696,-2.186c-2.47,-1.872 -3.896,-4.619 -4.277,-8.241c-0.343,-2.226 -0.072,-5.028 0.811,-8.406c0.882,-3.378 2.347,-7.932 4.393,-13.662c5.011,-12.548 4.623,-10.972 6.291,-14.261c1.667,-3.288 2.74,-6.147 3.216,-8.578c0.476,-2.43 0.391,-4.726 -0.257,-6.888c-0.648,-2.161 -1.894,-4.739 -3.739,-7.732c-1.346,-2.142 -2.914,-4.508 -4.706,-7.098c-1.791,-2.59 -3.273,-4.847 -4.445,-6.77Zm3.968,-13.86c1.968,-1.564 4.075,-3.908 6.32,-7.031c2.245,-3.123 4.015,-6.002 5.31,-8.637c1.273,-2.439 1.902,-4.902 1.888,-7.388c-0.014,-2.487 -0.742,-3.514 -2.183,-3.083c-1.441,0.432 -2.922,1.655 -4.444,3.668c-1.522,2.012 -2.876,4.293 -4.062,6.841c-1.185,2.549 -2.044,5.283 -2.577,8.204c-0.532,2.922 -0.616,5.397 -0.252,7.426Z"
       style="fill:#ffffff;fill-rule:nonzero"
       id="path24" /><path
       d="M379.189,203.633c0.505,-0.936 1.326,-2.035 2.464,-3.297c1.138,-1.261 2.447,-1.41 3.927,-0.446c2.462,1.077 2.171,3.628 -0.874,7.654c-1.205,1.85 -3.003,4.974 -5.394,9.373c-2.391,4.398 -4.783,9.244 -7.177,14.537c-1.822,3.768 -3.453,7.607 -4.893,11.518c-1.441,3.911 -2.548,7.511 -3.322,10.803c-0.201,1.766 0.075,2.394 0.829,1.883c0.754,-0.51 1.47,-1.124 2.149,-1.842c2.186,-1.738 4.473,-4.359 6.862,-7.863c2.388,-3.505 5.066,-7.373 8.034,-11.607c2.969,-4.233 6.467,-8.754 10.495,-13.562c4.028,-4.808 8.688,-9.494 13.98,-14.058c1.75,-1.39 3.364,-1.604 4.845,-0.639c0.936,0.504 1.446,1.258 1.53,2.262c0.085,1.003 -0.311,1.853 -1.185,2.548c-6.386,5.433 -11.702,10.641 -15.949,15.623c-4.246,4.982 -7.897,9.534 -10.953,13.658c-3.055,4.124 -5.613,7.808 -7.673,11.052c-2.06,3.243 -3.889,5.768 -5.487,7.573c-2.035,2.153 -3.986,3.571 -5.853,4.252c-1.867,0.681 -3.514,0.742 -4.941,0.181c-1.426,-0.56 -2.481,-1.774 -3.162,-3.641c-0.681,-1.867 -0.756,-4.261 -0.223,-7.182l0.033,-0.295c0.796,-3.487 1.975,-7.279 3.536,-11.374c1.561,-4.096 3.264,-8.126 5.108,-12.09c2.416,-5.489 4.88,-10.525 7.391,-15.109c2.512,-4.584 4.479,-7.888 5.903,-9.912Zm6.357,-13.885c1.424,-2.024 3.061,-2.433 4.911,-1.228c1.873,1.009 2.294,2.548 1.262,4.617l-0.689,0.816c-0.505,0.936 -1.166,1.506 -1.985,1.711c-0.819,0.205 -1.696,0.055 -2.632,-0.45c-1.654,-1.182 -2.075,-2.721 -1.262,-4.617l0.395,-0.849Z"
       style="fill:#ffffff;fill-rule:nonzero"
       id="path26" /><path
       d="M455.132,212.307l-1.152,2.254c-6.755,12.15 -13.194,24.137 -19.315,35.962c-6.122,11.825 -11.499,22.791 -16.132,32.897c-4.633,10.106 -8.385,19.021 -11.255,26.744c-2.87,7.724 -4.42,13.461 -4.649,17.212c0.235,1.418 1.934,0.469 5.096,-2.847c3.162,-3.317 8.815,-10.176 16.961,-20.577c4.883,-6.201 10.074,-13.361 15.574,-21.48c5.499,-8.119 11.103,-16.275 16.809,-24.47c5.707,-8.194 11.419,-15.991 17.134,-23.389c5.715,-7.399 11.23,-13.478 16.545,-18.239c0.656,-0.521 1.508,-1.02 2.557,-1.497c1.048,-0.476 2.018,-0.266 2.91,0.631c0.543,0.46 0.907,1.197 1.089,2.212c0.182,1.014 -0.164,1.869 -1.039,2.565c-5.511,4.738 -11.173,10.8 -16.986,18.187c-5.814,7.388 -11.574,15.179 -17.281,23.373c-5.707,8.195 -11.261,16.357 -16.663,24.487c-5.401,8.13 -10.456,15.405 -15.165,21.825c-5.696,8.096 -10.72,14.232 -15.074,18.406c-4.353,4.175 -7.944,6.896 -10.772,8.163c-2.829,1.267 -5.004,1.168 -6.526,-0.298c-1.523,-1.466 -2.203,-3.78 -2.04,-6.942l0.033,-0.295c0.207,-3.554 1.434,-8.633 3.679,-15.235c2.244,-6.602 5.256,-14.259 9.034,-22.972c3.778,-8.713 8.137,-18.155 13.076,-28.326c4.938,-10.171 10.303,-20.591 16.094,-31.261c-3.981,3.521 -8.08,6.78 -12.299,9.778c-4.219,2.997 -8.349,5.656 -12.391,7.977c-4.85,2.428 -9.261,4.062 -13.233,4.9c-3.972,0.839 -7.363,0.501 -10.172,-1.013l-2.742,-2.102c-1.564,-1.968 -2.517,-4.064 -2.86,-6.29c-0.516,-2.445 -0.317,-5.056 0.597,-7.834c0.914,-2.778 2.346,-5.746 4.297,-8.902c1.906,-2.765 4.019,-5.605 6.34,-8.52c2.321,-2.916 5.012,-5.59 8.073,-8.024c4.9,-4.609 10.169,-8.53 15.806,-11.762c5.637,-3.233 10.791,-5.278 15.461,-6.137l0.294,0.034c3.448,-0.6 6.441,-0.258 8.978,1.025c2.537,1.284 4.535,2.506 5.992,3.667c1.61,1.575 2.815,3.204 3.617,4.886c5.942,-10.255 11.966,-20.352 18.071,-30.29c6.105,-9.938 12.137,-19.239 18.096,-27.902c5.959,-8.662 22.635,-31.04 28.023,-38.177c5.387,-7.138 10.433,-13.023 15.136,-17.654c0,0 8.618,-9.252 12.186,-11.875c1.703,-1.387 5.142,-0.249 3.584,2.585c-0.701,1.276 -2.609,3.231 -4.125,5.149c-39.404,43.063 -66.622,95.156 -89.271,129.391Zm-6.468,-3.423c0.163,-3.162 -1.171,-5.849 -3.999,-8.06c-2.829,-2.212 -5.771,-2.995 -8.827,-2.35c-4.278,0.903 -8.913,2.759 -13.905,5.568c-4.993,2.81 -9.709,6.247 -14.149,10.312c-2.669,2.478 -5.092,4.985 -7.27,7.519c-2.178,2.534 -4.111,5.097 -5.798,7.687c-3.179,5.203 -4.532,9.223 -4.061,12.06c0.084,1.004 0.485,1.845 1.203,2.523l1.076,1.018c1.48,0.964 3.759,1.025 6.837,0.184c3.078,-0.841 6.42,-2.249 10.025,-4.222c4.238,-2.299 8.538,-5.138 12.9,-8.516c4.362,-3.379 8.751,-7.002 13.169,-10.871c2.428,-2.109 4.708,-4.234 6.841,-6.376c2.133,-2.141 4.119,-4.3 5.958,-6.476Z"
       style="fill:#ffffff;fill-rule:nonzero"
       id="path28" /><path
       d="M489.101,230.798c6.588,-0.242 12.231,-1.784 16.929,-4.627c4.698,-2.843 8.23,-5.919 10.596,-9.227c1.642,-2.198 2.564,-4.18 2.766,-5.946c0.527,-1.132 0.443,-2.136 -0.252,-3.01c-0.477,-1.049 -2.025,-1.424 -4.643,-1.127c-3.666,0.774 -7.697,2.997 -12.093,6.67c-4.877,4.413 -9.312,10.168 -13.303,17.267Zm33.042,-9.943c-3.089,4.418 -7.763,8.357 -14.023,11.817c-6.259,3.459 -13.751,5.089 -22.475,4.888c-2.085,4.334 -3.614,8.582 -4.587,12.745c-0.972,4.163 -1.125,7.674 -0.457,10.534c0.017,1.592 0.547,3.044 1.59,4.356l1.37,1.051c1.503,0.768 3.416,0.987 5.74,0.656c2.324,-0.331 4.874,-1.332 7.649,-3.003c3.431,-2.193 7.186,-5.044 11.264,-8.554c4.079,-3.51 8.186,-7.266 12.32,-11.266c4.135,-4.001 8.062,-7.926 11.782,-11.775c3.719,-3.849 7.132,-7.187 10.238,-10.013c0.942,-1.284 1.92,-2.017 2.935,-2.199c1.015,-0.183 1.892,-0.033 2.632,0.449c1.48,0.965 1.584,2.666 0.312,5.105c-3.347,3.196 -6.952,6.91 -10.815,11.14c-3.862,4.231 -7.916,8.39 -12.159,12.477c-4.244,4.088 -8.521,8.023 -12.829,11.805c-4.308,3.782 -8.472,6.735 -12.492,8.86c-8.062,4.447 -14.804,5.168 -20.226,2.163l-2.742,-2.102l0.034,-0.294c-1.957,-2.013 -3.16,-4.536 -3.609,-7.569c-0.555,-3.841 -0.258,-8.18 0.891,-13.019c1.149,-4.838 2.8,-9.719 4.952,-14.642c2.153,-4.923 4.828,-9.637 8.026,-14.142c3.199,-4.505 6.679,-8.431 10.44,-11.779c2.45,-2.304 4.954,-4.205 7.51,-5.702c2.557,-1.497 5.253,-2.482 8.09,-2.953l0.295,0.034c5.432,-0.572 9.136,0.944 11.11,4.549c1.542,2.164 1.926,4.891 1.152,8.183c-0.728,2.898 -2.034,5.632 -3.918,8.2Z"
       style="fill:#ffffff;fill-rule:nonzero"
       id="path30" /><path
       d="M545.148,226.518c-0.183,-0.02 -0.361,-0.085 -0.534,-0.195c-0.173,-0.111 -0.351,-0.176 -0.533,-0.195c-1.549,-1.088 -1.86,-2.507 -0.936,-4.257c-1.037,-4.175 -1.342,-8.273 -0.917,-12.294c0.425,-4.02 1.057,-7.372 1.895,-10.055c1.599,-4.635 3.66,-8.391 6.181,-11.265c2.522,-2.875 4.654,-4.682 6.395,-5.422c2.126,-0.884 4.019,-0.868 5.678,0.046c1.658,0.915 2.934,2.39 3.828,4.425c0.893,2.034 1.282,4.478 1.165,7.33c-0.117,2.852 -0.888,5.773 -2.313,8.764c-1.868,3.683 -4.289,7.353 -7.264,11.012c-2.974,3.658 -5.481,6.396 -7.521,8.213c1.23,2.347 2.744,4.633 4.541,6.856c1.798,2.222 3.321,4.416 4.571,6.581c1.864,3.339 3.233,6.117 4.107,8.335c0.875,2.217 1.131,4.6 0.769,7.149c-0.362,2.549 -1.275,5.502 -2.739,8.858c-1.464,3.356 -3.501,7.76 -6.11,13.213c-2.61,5.452 -5.78,12.278 -9.512,20.476c-3.732,8.198 -8,18.418 -12.807,30.66c-1.3,3.559 -2.273,6.643 -2.919,9.254c-0.646,2.612 -1.147,4.73 -1.504,6.355c-0.174,1.645 0.189,3.023 1.087,4.135c0.899,1.111 2.181,1.662 3.845,1.654c1.664,-0.009 3.496,-0.739 5.498,-2.191c2.001,-1.451 3.926,-3.927 5.775,-7.427c3.177,-5.577 7.68,-12.956 12.514,-22.653c24.426,-49.006 84.46,-54.827 113.74,-31.197c2.874,2.32 3.98,4.355 0.988,6.156c-2.783,1.673 -6.141,-3.165 -8.763,-4.863c-20.321,-13.167 -72.51,-15.524 -97.877,28.126c-5.264,9.058 -9.032,17.247 -12.507,23.901c-2.61,5.453 -5.582,9.527 -8.916,12.224c-3.335,2.696 -6.548,4.25 -9.641,4.662c-3.092,0.412 -5.795,-0.243 -8.107,-1.966c-2.313,-1.723 -3.661,-4.268 -4.044,-7.635c-0.335,-2.068 -0.105,-4.677 0.69,-7.827c0.795,-3.15 2.122,-7.398 3.982,-12.745c4.565,-11.714 8.653,-21.537 12.265,-29.471c3.611,-7.933 6.711,-14.535 9.302,-19.805c2.59,-5.27 4.648,-9.441 6.174,-12.513c1.526,-3.073 2.502,-5.741 2.926,-8.006c0.425,-2.265 0.327,-4.401 -0.292,-6.407c-0.62,-2.005 -1.799,-4.394 -3.539,-7.165c-1.268,-1.982 -2.746,-4.171 -4.433,-6.567c-1.687,-2.396 -3.083,-4.484 -4.188,-6.264Zm3.585,-12.926c1.819,-1.471 3.76,-3.668 5.825,-6.591c2.065,-2.923 3.69,-5.615 4.874,-8.077c1.165,-2.279 1.731,-4.575 1.699,-6.889c-0.033,-2.313 -0.717,-3.263 -2.055,-2.85c-1.337,0.413 -2.706,1.561 -4.106,3.446c-1.401,1.884 -2.643,4.017 -3.726,6.397c-1.083,2.38 -1.862,4.931 -2.334,7.653c-0.473,2.722 -0.532,5.025 -0.177,6.911Z"
       style="fill:#ffffff;fill-rule:nonzero"
       id="path32" /></g><path
     d="M102.044,74.062c-3.536,12.151 3.955,25.866 12.375,29.071c6.393,2.434 13.44,2.725 20.17,1.438c12.035,-2.258 24.765,-1.756 35.763,3.669c5.51,2.719 10.481,6.411 15.338,10.207l1.308,0.632l1.452,0.033l1.335,-0.57l0.98,-1.072l0.447,-1.382c0.024,-0.232 0.051,-0.463 0.078,-0.695c0.927,-7.62 2.259,-15.847 6.893,-21.269c0.635,-0.742 1.384,-1.418 2.29,-1.81l1.099,-0.758c1.429,-2.205 1.321,-5.154 -2.49,-5.817c-0.793,-0.138 -1.96,0.004 -3.055,-0.004c-10.664,-0.098 -21.491,-0.26 -31.806,-2.754c-2.118,-0.512 -4.611,-0.859 -5.941,-2.42c-2.044,-2.464 -1.42,-7.829 -2.233,-12.21c-2.043,-11.009 -11.931,-18.511 -18.654,-27.031c-6.164,-7.813 -10.022,-17.263 -10.387,-27.299l-0.294,-1.272c-1.051,-1.499 -2.823,-2.42 -4.405,-1.787c-1.632,0.653 -2.745,2.173 -4.232,3.197c-5.472,3.77 -12.455,6.119 -18.977,2.994c-6.258,-2.998 -10.09,-9.301 -12.931,-15.211l-0.773,-1.041c-1.097,-0.676 -1.112,-0.681 -2.382,-0.901c-0.423,0.09 -0.845,0.18 -1.268,0.269c-0.359,0.241 -0.771,0.417 -1.078,0.721c-0.916,0.907 -0.967,1.284 -1.028,2.657c-0.597,11.512 -4.807,24.555 -16.839,26.771c-2.418,0.445 -4.904,0.39 -7.348,0.051l-1.455,0.112l-1.276,0.707l-0.867,1.174l-0.301,1.428l0.321,1.423c0.053,0.114 0.104,0.229 0.154,0.344c6.127,14.027 -4.878,19.585 -28.989,24.727l-0.837,1.018c-0.339,1.089 -0.612,1.409 -0.279,2.571c0.396,1.388 1.229,4.59 2.008,5.887c0.577,0.96 1.109,1.947 1.596,2.956c2.955,6.131 4.225,13.403 2.051,20.032c-1.422,4.332 -4.17,8.131 -7.485,11.298c0,0 -0.631,0.626 -0.887,1.2c-0.5,1.122 -0.265,1.483 -0.07,2.623l0.713,1.132c1.085,0.767 1.101,0.775 2.397,1.068l1.318,-0.225c2.429,-1.531 4.414,-3.984 6.184,-6.464c3.895,-5.458 6.044,-12.117 5.791,-18.92c-0.25,-6.698 -2.281,-14.195 -5.785,-19.838c16.206,-1.064 35.108,-15.147 30.264,-27.015c0,0 9.538,-0.685 15.635,-6.388c4.91,-4.593 7.798,-11.085 9.405,-17.696c0,0 2.986,4.088 6.484,6.836c5.779,4.538 13.672,6.06 20.743,4.033c2.96,-0.848 5.764,-2.188 8.371,-3.823c0,0 0.549,2.954 1.157,5.27c3.438,13.101 13.73,23.045 22.558,33.791c2.7,3.286 4.658,7.174 5.163,11.386c0.659,5.49 0.118,11.845 5.247,15.428c3.679,2.57 8.388,3.379 12.998,4.118c7.52,1.205 15.15,1.612 22.768,1.832c0,0 0.865,-0.858 -0.124,0.929c-2.657,4.871 -4.084,10.338 -5.116,15.824l-0.046,0.245c-0.255,-0.188 -0.512,-0.375 -0.769,-0.562c-8.24,-5.952 -17.644,-10.555 -27.669,-11.988c-8.634,-1.235 -17.441,-0.317 -26.011,1.395c-0.198,0.039 -0.396,0.076 -0.594,0.112c-5.52,0.979 -11.469,0.461 -15.452,-3.574c-5.068,-5.134 -6.312,-13.152 -6.005,-19.695l-0.226,-1.394l-0.769,-1.185l-1.182,-0.774l-1.393,-0.232l-1.369,0.349l-1.112,0.872l-0.665,1.246Z"
     style="fill:#ffffff"
     id="path36" /><path
     d="M114.067,266.155l1.941,-7.452c4.532,-21.187 -0.948,-44.61 -17.575,-59.837c-7.75,-7.098 -17.234,-11.932 -26.894,-16.041c-14.985,-6.431 -28.537,-16.447 -37.06,-30.707c-7.623,-11.25 -12.408,-22.292 -14.356,-33.123c-0.409,-2.276 -2.02,-10.437 -1.131,-12.857c3.296,-3.782 8.265,-8.224 8.041,-5.115c0.386,10.892 2.515,21.789 6.326,32.374c0.605,1.681 1.261,3.347 1.968,4.992c1.832,3.527 3.968,7.078 6.408,10.655c4.541,6.657 10.49,13.216 17.848,19.677c8.341,5.478 17.989,8.675 26.589,13.273c15.712,8.4 28.99,21.903 34.773,38.88c3.889,11.415 4.415,23.874 2.44,35.734l-0.002,0.012c-1.521,8.296 -2.678,11.563 -4.018,15.327c-6.726,18.89 -19.141,36.217 -35.981,46.431c-9.889,5.998 -21.293,8.613 -33.542,6.825c-15.487,-2.259 -29.982,-10.659 -38.866,-23.654c-15.442,-22.586 -15.474,-57.361 5.576,-73.548c17.188,-13.217 47.069,-6.116 57.177,13.752c2.66,5.227 3.93,11.107 3.978,16.993c0,0 -0.001,0 0,0.047c0.042,3.122 -0.521,6.866 -0.521,6.866c-1.733,10.964 -7.387,22.38 -17.8,26.198c-10.254,3.76 -23.307,-3.673 -26.176,-14.615c-3.071,-11.714 5.265,-26.436 19.262,-24.008c6.121,1.062 12.081,2.884 18.163,4.191l0.183,0.039c-0.3,-7.201 -3.107,-14.383 -8.174,-19.461c-6.612,-6.626 -16.462,-9.952 -25.696,-9.936c-7.193,0.043 -14.246,2.827 -19.397,8.24c-8.478,8.907 -11.078,21.985 -10.266,33.802c1.246,18.146 11.55,35.824 28.197,43.747c9.619,4.578 20.928,6.581 30.858,4.3c16.217,-3.724 29.338,-16.686 38.345,-31.356c3.964,-6.458 7.125,-13.407 9.382,-20.645Zm-64.96,-6.394c-5.494,0.063 -9.231,6.344 -9.646,11.029c-0.615,6.926 4.904,13.573 12.199,15.061c7.237,1.475 14.036,-6.262 16.979,-14.342c0.834,-2.289 1.428,-4.663 1.798,-7.075c0,0 -4.417,-0.988 -8.139,-1.885c-4.336,-1.046 -8.664,-2.706 -13.012,-2.787c-0.06,-0.001 -0.12,-0.001 -0.179,-0.001Z"
     style="fill:#ffffff"
     id="path38" /><path
     d="M473.846,135.456l0.995,0.646l0.673,0.977c0.245,1.153 0.245,1.169 0.031,2.327l-0.646,0.996l-0.977,0.672l-1.16,0.247l-316.067,4.261l-1.167,-0.216c-0.988,-0.641 -1,-0.652 -1.667,-1.623l-0.248,-1.16c0.228,-1.231 0.756,-2.369 1.839,-2.835c0.364,-0.156 0.774,-0.164 1.161,-0.247l316.067,-4.261c0.388,0.072 0.777,0.144 1.166,0.216Z"
     style="fill:#ffffff"
     id="path40" /><path
     d="M687.251,105.124c8.029,0.036 16.292,0.649 23.409,4.002c5.047,2.377 9.265,6.794 9.339,12.871c0.082,6.781 -3.934,12.834 -7.916,17.952c-9.654,12.411 -22.99,21.503 -34.186,32.796c-22.72,22.915 -38.243,52.576 -46.085,84.174l-0.505,1.073l-0.877,0.799l-1.116,0.402c-1.025,-0.048 -1.382,0.087 -2.259,-0.56c-0.318,-0.235 -0.532,-0.585 -0.798,-0.878l-0.403,-1.116c0.15,-3.175 1.373,-6.344 2.309,-9.547c9.889,-33.871 28.647,-65.053 55.665,-88.148c10.784,-9.219 23.019,-18.059 28.73,-31.193c0.183,-0.422 0.354,-0.848 0.51,-1.281c0.106,-0.296 0.206,-0.596 0.297,-0.898c0.872,-2.899 0.615,-6.426 -1.773,-8.654c-4.243,-3.959 -10.765,-4.827 -16.881,-5.38c-4.776,-0.431 -9.596,-0.48 -14.378,-0.1l-0.149,0.013l-120.189,2.207l-7.618,24l-0.614,1.087l-1,0.749l-1.216,0.284l-29.684,0.661c-1.161,-0.204 -1.175,-0.209 -2.169,-0.842l-0.681,-0.972l-0.258,-1.158l0.206,-1.168l0.637,-1.001l0.971,-0.681l1.159,-0.257l27.51,-0.613l7.621,-24.009l0.617,-1.09l1.004,-0.749l1.221,-0.281c0,0 122.135,-2.241 122.135,-2.241c0.284,-0.022 0.567,-0.043 0.851,-0.061c2.192,-0.139 4.379,-0.196 6.564,-0.192Z"
     style="fill:#ffffff"
     id="path42" /><path
     d="M624.983,285.436l0.929,0.737l0.576,1.037c0.306,2.654 -0.196,5.475 -0.324,8.279c-0.683,14.919 -0.522,30.265 5.07,44.077c5.645,13.939 12.677,28.163 11.996,43.477c-0.387,8.704 -3.989,17.285 -11.347,22.655c-10.439,7.62 -24.167,8.315 -36.459,7.832c-19.421,-0.763 -38.534,-5.426 -57.329,-10.275c-57.152,-14.746 -113.606,-32.126 -171.67,-45.347l-1.083,-0.484l-0.815,-0.862l-0.424,-1.108c0.032,-1.178 0.036,-1.194 0.517,-2.269l0.861,-0.816c1.101,-0.421 1.116,-0.423 2.294,-0.391c54.358,12.378 107.482,28.251 161.502,42.671c24.872,6.64 49.939,14.108 75.738,12.772c11.186,-0.579 23.38,-2.838 29.173,-13.221c4.51,-8.083 3.33,-18.452 0.824,-27.892c-2.088,-7.866 -5.25,-15.364 -8.704,-22.811c-0.122,-0.268 -0.121,-0.268 -0.241,-0.537c-7.305,-16.783 -7.009,-36.398 -5.551,-54.5c0.048,-0.592 0.213,-1.15 0.373,-1.709l0.737,-0.929l1.037,-0.577l1.179,-0.135c0.38,0.108 0.761,0.217 1.141,0.326Z"
     style="fill:#ffffff"
     id="path44" /></svg>